<?xml version="1.0" encoding="UTF-8"?>
<!DOCTYPE svg PUBLIC "-//W3C//DTD SVG 1.1//EN" "http://www.w3.org/Graphics/SVG/1.1/DTD/svg11.dtd">
<svg xmlns="http://www.w3.org/2000/svg" xml:space="preserve" width="94.1937mm" height="56.25mm" version="1.1" style="shape-rendering:geometricPrecision; text-rendering:geometricPrecision; image-rendering:optimizeQuality; fill-rule:evenodd; clip-rule:evenodd"
viewBox="0 0 16911.89 10099.34"
 xmlns:xlink="http://www.w3.org/1999/xlink">
 <defs>
  <style type="text/css">
   <![CDATA[
    .fil1 {fill:#00AFD8}
    .fil0 {fill:white;fill-rule:nonzero}
   ]]>
  </style>
 </defs>
 <g>
   <rect class="fil0" x="2246.23" y="1414.45" width="5700.37" height="7423.26"/>
   <path class="fil1" d="M5047.44 0c-2787.72,0 -5047.44,2261.86 -5047.44,5050.41 0,2789.48 2259.72,5048.93 5047.44,5048.93 2788.21,0 5047.44,-2259.45 5047.44,-5048.93 0,-2788.55 -2259.24,-5050.41 -5047.44,-5050.41zm-1750.26 1652.29l4300.7 0 -296.89 1499.39 -2712.26 0c0,0 -129.11,586.68 -188.54,921.9 270.11,-141.64 578.01,-209.31 939.71,-209.31 1278.19,0 2170.4,974.35 2170.4,2369.33 0,675.34 -263.68,1305.1 -743.76,1775.51 -489.71,478.74 -1138.34,735.3 -1823.02,720.01 -1155.11,0 -2326.31,-574.59 -2535.59,-1845.3l1839.34 0c143.04,214.45 378.44,341.46 668.05,341.46 562.76,0 865.49,-511.3 865.49,-991.67 0,-475.27 -267.27,-954.56 -865.49,-954.56 -357.47,0 -555.22,103.88 -782.34,412.7l-53.45 72.73 -1610.72 0 828.38 -4112.18zm7476.15 1506.82l-448.34 3401.08 636.88 0 448.32 -3401.08 -636.86 0zm1052.54 0l-68.3 461.7 638.35 0 68.3 -461.7 -638.35 0zm4132.95 791.25c-516.48,0 -1114.23,345.71 -1241.08,1318.28 -59.41,450.22 11.87,794.62 210.82,1021.37 172.86,197.75 442.32,301.35 779.38,301.35 373.45,0 713.9,-143.26 984.24,-415.66l51.96 -53.45 -417.15 -400.81 -51.96 44.53c-147.26,133.78 -343.92,218.24 -515.13,218.24 -151.73,0 -271.22,-46.02 -345.91,-130.65 -60.6,-69.3 -92.03,-167.12 -92.03,-286.52 0,-12.98 2.03,-25.37 2.96,-38.58l1515.73 0 60.87 -467.64c7.5,-55.41 10.38,-109.74 10.38,-163.3 -0.23,-247.38 -77.6,-469.49 -224.16,-636.88 -175.92,-199.83 -434.14,-310.27 -728.91,-310.27zm-4238.36 28.21l-336.99 2583.11 636.86 0 338.48 -2583.11 -638.35 0zm849.15 0l608.67 2583.11 507.71 0 1285.61 -2583.11 -682.88 0c0,0 -591.04,1267.87 -728.91,1563.23 -63.65,-314.61 -319.17,-1563.23 -319.17,-1563.23l-671.03 0zm3328.35 578.97c116.04,0 211.47,37.58 274.65,106.88 64.12,70.02 96.49,173.49 96.49,302.85 0,3.25 0,7.94 0,11.89l-868.45 0c69.52,-261.76 253.28,-421.62 497.32,-421.62z"/>
 </g>
</svg>
